<?xml version="1.0" encoding="UTF-8"?>
<svg xmlns="http://www.w3.org/2000/svg" xmlns:xlink="http://www.w3.org/1999/xlink" viewBox="0 0 480 480" width="480px" height="480px">
<g id="surface8716981">
<path style="fill-rule:nonzero;fill:rgb(100%,100%,100%);fill-opacity:1;stroke-width:10;stroke-linecap:butt;stroke-linejoin:round;stroke:rgb(80.000001%,80.000001%,80.000001%);stroke-opacity:1;stroke-miterlimit:10;" d="M 147.812205 81.520834 C 144.229168 81.520834 141.54226 81.520834 138.406547 81.520834 C 137.510418 81.520834 136.166964 84.656547 137.510418 84.656547 C 139.154556 84.656547 140.090678 84.638772 142.885714 84.656547 C 143.226391 84.659509 144.676492 84.656547 144.676492 86.447325 C 144.676492 87.469357 144.229168 88.686908 141.989584 88.686908 C 140.646131 88.686908 139.750001 88.686908 135.718159 88.686908 C 134.374705 88.686908 133.478575 92.271426 133.478575 93.61488 C 133.478575 94.51101 133.927381 94.51101 134.374705 94.51101 C 135.298977 94.51101 141.99699 92.123306 143.333038 92.271426 C 144.398025 92.388442 145.125297 93.251985 145.125297 94.51101 C 145.125297 96.750593 137.614102 100.318818 133.031251 100.318818 C 131.238992 100.318818 128.10476 99.053868 128.10476 95.405658 C 128.10476 92.718751 129.895538 89.135714 129.895538 88.239584 C 129.895538 87.343454 129.448214 87.343454 129.448214 86.447325 C 129.448214 85.552676 129.895538 84.656547 131.687797 84.656547 C 132.135121 84.656547 132.583927 83.313093 133.031251 81.07351 C 133.207514 80.187749 132.135121 80.624704 130.344343 79.728575 C 128.73131 78.922799 129.014221 77.374939 129.895538 76.973532 C 130.856841 76.539538 140.204731 76.33217 145.343035 76.052222 C 146.61539 75.984086 148.034386 76.006304 149.155659 79.728575 C 149.44005 80.672103 148.708334 81.520834 147.812205 81.520834 Z M 147.812205 81.520834 " transform="matrix(2.637209,0,0,2.637209,13.2,13.2)"/>
<path style="fill-rule:nonzero;fill:rgb(100%,100%,100%);fill-opacity:1;stroke-width:10;stroke-linecap:butt;stroke-linejoin:round;stroke:rgb(80.000001%,80.000001%,80.000001%);stroke-opacity:1;stroke-miterlimit:10;" d="M 120.48988 99.884825 C 117.586717 99.884825 115.561908 94.958334 113.77113 90.031843 C 112.606903 86.823551 112.427677 86.000001 111.978871 86.000001 C 111.531547 86.000001 111.082742 87.79226 111.082742 90.926492 C 111.082742 99.437501 109.739288 100.33363 108.395834 100.33363 C 106.603575 100.33363 106.156251 97.122376 106.156251 94.958334 C 106.156251 83.313093 109.739288 77.937797 111.082742 77.937797 C 111.738916 77.937797 112.606903 78.238482 113.322325 79.281251 C 118.250297 86.447325 119.593751 93.166075 120.48988 93.166075 C 120.937205 93.166075 121.38601 91.822621 121.38601 90.031843 C 121.38601 81.968158 119.593751 78.833926 118.697621 74.802084 C 118.482846 73.830413 119.214562 73.337171 120.041075 73.905954 C 122.187342 75.382717 126.312501 79.728575 126.312501 88.239584 C 126.312501 96.750593 123.219743 99.884825 120.48988 99.884825 Z M 120.48988 99.884825 " transform="matrix(2.637209,0,0,2.637209,13.2,13.2)"/>
<path style="fill-rule:nonzero;fill:rgb(100%,100%,100%);fill-opacity:1;stroke-width:10;stroke-linecap:butt;stroke-linejoin:round;stroke:rgb(80.000001%,80.000001%,80.000001%);stroke-opacity:1;stroke-miterlimit:10;" d="M 103.916667 79.728575 C 103.916667 81.07351 103.020538 81.968158 101.22976 81.968158 C 98.541371 81.968158 96.301788 81.07351 92.271426 81.07351 C 85.103871 81.07351 85.103871 81.968158 85.103871 82.864288 C 85.103871 84.212185 92.271426 83.760417 96.750593 84.656547 C 101.22976 85.552676 104.363992 86.89613 104.363992 91.822621 C 104.315112 95.041282 102.573214 100.33363 93.166075 100.33363 C 86.447325 100.33363 81.07351 97.197917 81.07351 93.166075 C 81.07351 91.77226 81.520834 88.686908 86.89613 88.686908 C 90.926492 88.686908 97.645242 90.479167 97.645242 91.822621 C 97.645242 93.166075 95.950742 94.062204 93.166075 94.062204 C 89.583038 94.062204 87.343454 91.375297 84.656547 91.375297 C 83.760417 91.375297 83.313093 91.822621 83.313093 92.718751 C 83.313093 95.405658 90.031843 96.301788 93.166075 96.301788 C 96.036652 96.301788 100.33363 95.405658 100.33363 92.271426 C 100.33363 90.479167 98.990177 88.686908 91.375297 87.79226 C 89.522308 87.573041 81.07351 87.79226 81.07351 82.864288 C 81.07351 78.833926 84.727645 76.145538 93.166075 76.145538 C 101.605986 76.145538 103.916667 77.937797 103.916667 79.728575 Z M 103.916667 79.728575 " transform="matrix(2.637209,0,0,2.637209,13.2,13.2)"/>
<path style="fill-rule:nonzero;fill:rgb(100%,100%,100%);fill-opacity:1;stroke-width:10;stroke-linecap:butt;stroke-linejoin:round;stroke:rgb(80.000001%,80.000001%,80.000001%);stroke-opacity:1;stroke-miterlimit:10;" d="M 76.145538 100.33363 C 75.200528 100.33363 74.26885 99.921855 73.877811 99.379734 C 73.2009 98.538409 72.941689 98.126633 73.009825 90.926492 C 73.178682 85.588225 73.45863 77.041667 75.698213 77.041667 C 77.488991 77.041667 78.833926 79.281251 78.833926 92.271426 C 78.833926 100.33363 78.385121 100.33363 76.145538 100.33363 Z M 76.145538 100.33363 " transform="matrix(2.637209,0,0,2.637209,13.2,13.2)"/>
<path style="fill-rule:nonzero;fill:rgb(100%,100%,100%);fill-opacity:1;stroke-width:10;stroke-linecap:butt;stroke-linejoin:round;stroke:rgb(80.000001%,80.000001%,80.000001%);stroke-opacity:1;stroke-miterlimit:10;" d="M 93.166075 61.811908 C 93.166075 66.022976 86.186633 71.666371 79.728575 71.666371 C 74.35476 71.666371 73.45863 70.322917 73.45863 70.322917 C 73.45863 70.322917 72.898734 70.659151 72.562501 71.219047 C 72.226267 71.777461 72.115176 72.562501 71.219047 72.562501 C 70.322917 72.562501 69.875593 72.115176 69.875593 71.219047 C 69.875593 70.322917 70.322917 69.426788 69.875593 68.530658 C 69.426788 67.63601 68.083334 66.73988 68.083334 63.156843 C 68.083334 60.91726 71.666371 53.764516 80.937239 53.764516 C 86.000001 53.764516 86.447325 56.885417 86.447325 56.885417 C 86.476949 56.907635 93.166075 55.989287 93.166075 61.811908 Z M 79.281251 58.228871 C 72.115176 58.677676 71.219047 64.947621 71.666371 65.84375 C 74.35476 61.364584 77.041667 59.572325 79.281251 58.228871 Z M 88.236622 61.811908 C 88.236622 60.468454 87.340492 59.412354 85.287541 59.412354 C 82.856882 59.412354 77.488991 62.260713 75.074626 67.510107 C 81.968158 69.426788 88.239584 64.500297 88.236622 61.811908 Z M 88.236622 61.811908 " transform="matrix(2.637209,0,0,2.637209,13.2,13.2)"/>
<path style="fill-rule:nonzero;fill:rgb(100%,100%,100%);fill-opacity:1;stroke-width:10;stroke-linecap:butt;stroke-linejoin:round;stroke:rgb(80.000001%,80.000001%,80.000001%);stroke-opacity:1;stroke-miterlimit:10;" d="M 172.000298 84.207741 C 172.000298 96.718007 161.249705 100.33363 157.219344 100.33363 C 157.219344 100.33363 154.530955 108.395834 154.530955 119.593751 C 154.530955 121.38601 154.212496 121.833334 152.740177 121.833334 C 149.604464 121.833334 147.812205 119.146427 147.812205 117.354168 C 147.812205 111.531547 149.604464 103.020538 151.395242 98.541371 C 149.604464 97.645242 147.364881 96.301788 147.364881 90.926492 C 147.364881 87.143492 150.051788 82.416964 154.763504 77.488991 C 155.967725 76.228485 156.770538 75.698213 157.666668 75.698213 C 158.562797 75.698213 158.562797 76.594343 158.562797 77.041667 C 158.562797 79.281251 155.588536 82.445106 154.530955 84.207741 C 153.187501 86.447325 151.844047 90.031843 153.634825 92.718751 C 156.323214 86.000001 162.593159 77.937797 167.521131 77.937797 C 169.760714 77.937797 172.000298 79.389379 172.000298 84.207741 Z M 169.326721 83.760417 C 169.326721 83.313093 169.147495 82.416964 168.41726 82.416964 C 167.990673 82.416964 167.377454 82.283655 165.728872 84.207741 C 163.041964 87.343454 160.353575 91.822621 159.458927 94.958334 C 161.69851 94.51101 164.185455 92.786886 165.016412 92.024065 C 166.31691 90.830213 169.326721 87.79226 169.326721 83.760417 Z M 169.326721 83.760417 " transform="matrix(2.637209,0,0,2.637209,13.2,13.2)"/>
<path style="fill-rule:nonzero;fill:rgb(100%,100%,100%);fill-opacity:1;stroke-width:10;stroke-linecap:butt;stroke-linejoin:round;stroke:rgb(80.000001%,80.000001%,80.000001%);stroke-opacity:1;stroke-miterlimit:10;" d="M 69.875593 86.000001 C 69.875593 93.61488 64.051491 103.916667 43.895241 103.916667 C 38.072621 103.916667 33.593454 102.573214 33.593454 102.573214 C 33.593454 105.260121 33.14613 107.499705 30.457741 107.499705 C 28.218158 107.499705 27.323509 105.708927 27.323509 104.363992 C 27.323509 103.020538 27.323509 103.020538 27.323509 100.780955 C 20.155954 97.197917 10.750296 92.271426 10.750296 86.000001 C 10.750296 79.281251 21.052083 77.041667 27.283517 76.594343 C 27.283517 76.594343 27.323509 73.45863 27.323509 70.322917 C 27.323509 69.111291 27.770834 64.500297 30.457741 64.500297 C 33.14613 64.500297 33.593454 69.426788 33.593454 70.322917 C 33.593454 71.219047 33.593454 76.594343 33.593454 76.594343 C 51.062797 76.594343 53.749704 81.968158 53.749704 85.552676 C 53.749704 89.05721 50.962075 89.482316 49.719343 89.583038 C 48.47513 89.68376 46.58363 89.135714 46.58363 88.239584 C 46.58363 87.343454 49.596403 88.239584 49.596403 86.088873 C 49.596403 83.939643 44.344047 82.416964 33.593454 82.416964 C 33.593454 86.780596 33.593454 98.094047 33.593454 98.094047 C 33.593454 98.094047 38.072621 98.990177 43.447917 98.990177 C 48.737303 98.990177 62.260713 98.094047 62.260713 86.447325 C 62.260713 73.514916 37.176491 54.19851 15.229463 54.19851 C 5.375 54.19851 3.582741 55.093158 3.582741 55.989287 C 3.582741 55.989287 3.582741 56.438093 4.47887 56.438093 C 5.278722 56.438093 6.27113 56.438093 6.27113 57.332741 C 6.27113 58.677676 4.47887 58.677676 4.47887 58.677676 C 0.895833 58.677676 -0.000296261 56.418837 -0.000296261 55.093158 C -0.000296261 52.330709 4.927676 50.166667 15.229463 50.166667 C 45.240176 50.166667 69.875593 68.979463 69.875593 86.000001 Z M 27.323509 82.416964 C 24.187796 82.416964 13.437204 82.416964 13.437204 86.000001 C 13.437204 90.031843 27.323509 95.854464 27.323509 95.854464 Z M 27.323509 82.416964 " transform="matrix(2.637209,0,0,2.637209,13.2,13.2)"/>
<path style=" stroke:none;fill-rule:nonzero;fill:rgb(100%,100%,100%);fill-opacity:1;" d="M 403.011719 228.1875 C 393.5625 228.1875 386.476562 228.1875 378.207031 228.1875 C 375.84375 228.1875 372.300781 236.457031 375.84375 236.457031 C 380.179688 236.457031 382.648438 236.410156 390.019531 236.457031 C 390.917969 236.464844 394.742188 236.457031 394.742188 241.179688 C 394.742188 243.875 393.5625 247.085938 387.65625 247.085938 C 384.113281 247.085938 381.75 247.085938 371.117188 247.085938 C 367.574219 247.085938 365.210938 256.539062 365.210938 260.082031 C 365.210938 262.445312 366.394531 262.445312 367.574219 262.445312 C 370.011719 262.445312 387.675781 256.148438 391.199219 256.539062 C 394.007812 256.847656 395.925781 259.125 395.925781 262.445312 C 395.925781 268.351562 376.117188 277.761719 364.03125 277.761719 C 359.304688 277.761719 351.039062 274.425781 351.039062 264.804688 C 351.039062 257.71875 355.761719 248.269531 355.761719 245.90625 C 355.761719 243.542969 354.582031 243.542969 354.582031 241.179688 C 354.582031 238.820312 355.761719 236.457031 360.488281 236.457031 C 361.667969 236.457031 362.851562 232.914062 364.03125 227.007812 C 364.496094 224.671875 361.667969 225.824219 356.945312 223.460938 C 352.691406 221.335938 353.4375 217.253906 355.761719 216.195312 C 358.296875 215.050781 382.949219 214.503906 396.5 213.765625 C 399.855469 213.585938 403.597656 213.644531 406.554688 223.460938 C 407.304688 225.949219 405.375 228.1875 403.011719 228.1875 Z M 403.011719 228.1875 "/>
<path style=" stroke:none;fill-rule:nonzero;fill:rgb(100%,100%,100%);fill-opacity:1;" d="M 330.957031 276.617188 C 323.300781 276.617188 317.960938 263.625 313.238281 250.632812 C 310.167969 242.171875 309.695312 240 308.511719 240 C 307.332031 240 306.148438 244.726562 306.148438 252.992188 C 306.148438 275.4375 302.605469 277.800781 299.0625 277.800781 C 294.335938 277.800781 293.15625 269.332031 293.15625 263.625 C 293.15625 232.914062 302.605469 218.738281 306.148438 218.738281 C 307.878906 218.738281 310.167969 219.53125 312.054688 222.28125 C 325.050781 241.179688 328.59375 258.898438 330.957031 258.898438 C 332.136719 258.898438 333.320312 255.355469 333.320312 250.632812 C 333.320312 229.367188 328.59375 221.101562 326.230469 210.46875 C 325.664062 207.90625 327.59375 206.605469 329.773438 208.105469 C 335.433594 212 346.3125 223.460938 346.3125 245.90625 C 346.3125 268.351562 338.15625 276.617188 330.957031 276.617188 Z M 330.957031 276.617188 "/>
<path style=" stroke:none;fill-rule:nonzero;fill:rgb(100%,100%,100%);fill-opacity:1;" d="M 287.25 223.460938 C 287.25 227.007812 284.886719 229.367188 280.164062 229.367188 C 273.074219 229.367188 267.167969 227.007812 256.539062 227.007812 C 237.636719 227.007812 237.636719 229.367188 237.636719 231.730469 C 237.636719 235.285156 256.539062 234.09375 268.351562 236.457031 C 280.164062 238.820312 288.429688 242.363281 288.429688 255.355469 C 288.300781 263.84375 283.707031 277.800781 258.898438 277.800781 C 241.179688 277.800781 227.007812 269.53125 227.007812 258.898438 C 227.007812 255.222656 228.1875 247.085938 242.363281 247.085938 C 252.992188 247.085938 270.710938 251.8125 270.710938 255.355469 C 270.710938 258.898438 266.242188 261.261719 258.898438 261.261719 C 249.449219 261.261719 243.542969 254.175781 236.457031 254.175781 C 234.09375 254.175781 232.914062 255.355469 232.914062 257.71875 C 232.914062 264.804688 250.632812 267.167969 258.898438 267.167969 C 266.46875 267.167969 277.800781 264.804688 277.800781 256.539062 C 277.800781 251.8125 274.257812 247.085938 254.175781 244.726562 C 249.289062 244.148438 227.007812 244.726562 227.007812 231.730469 C 227.007812 221.101562 236.644531 214.011719 258.898438 214.011719 C 281.15625 214.011719 287.25 218.738281 287.25 223.460938 Z M 287.25 223.460938 "/>
<path style=" stroke:none;fill-rule:nonzero;fill:rgb(100%,100%,100%);fill-opacity:1;" d="M 214.011719 277.800781 C 211.519531 277.800781 209.0625 276.714844 208.03125 275.285156 C 206.246094 273.066406 205.5625 271.980469 205.742188 252.992188 C 206.1875 238.914062 206.925781 216.375 212.832031 216.375 C 217.554688 216.375 221.101562 222.28125 221.101562 256.539062 C 221.101562 277.800781 219.917969 277.800781 214.011719 277.800781 Z M 214.011719 277.800781 "/>
<path style=" stroke:none;fill-rule:nonzero;fill:rgb(100%,100%,100%);fill-opacity:1;" d="M 241.179688 163.21875 C 241.179688 163.21875 240 154.988281 226.648438 154.988281 C 202.199219 154.988281 192.75 173.851562 192.75 179.757812 C 192.75 189.207031 196.292969 191.570312 197.476562 193.929688 C 198.65625 196.292969 197.476562 198.65625 197.476562 201.019531 C 197.476562 203.382812 198.65625 204.5625 201.019531 204.5625 C 203.382812 204.5625 203.675781 202.492188 204.5625 201.019531 C 205.449219 199.542969 206.925781 198.65625 206.925781 198.65625 C 206.925781 198.65625 209.289062 202.199219 223.460938 202.199219 C 240.492188 202.199219 258.898438 187.316406 258.898438 176.210938 C 258.898438 160.855469 241.257812 163.277344 241.179688 163.21875 Z M 202.199219 186.84375 C 201.019531 184.480469 203.382812 167.945312 222.28125 166.761719 C 216.375 170.304688 209.289062 175.03125 202.199219 186.84375 Z M 211.1875 191.238281 C 217.554688 177.394531 231.710938 169.882812 238.121094 169.882812 C 243.535156 169.882812 245.898438 172.667969 245.898438 176.210938 C 245.90625 183.300781 229.367188 196.292969 211.1875 191.238281 Z M 211.1875 191.238281 "/>
<path style=" stroke:none;fill-rule:nonzero;fill:rgb(100%,100%,100%);fill-opacity:1;" d="M 454.988281 218.738281 C 441.992188 218.738281 425.457031 240 418.367188 257.71875 C 413.644531 250.632812 417.1875 241.179688 420.730469 235.273438 C 423.519531 230.625 431.363281 222.28125 431.363281 216.375 C 431.363281 215.195312 431.363281 212.832031 429 212.832031 C 426.636719 212.832031 424.519531 214.230469 421.34375 217.554688 C 408.917969 230.550781 401.832031 243.015625 401.832031 252.992188 C 401.832031 267.167969 407.738281 270.710938 412.460938 273.074219 C 407.738281 284.886719 403.011719 307.332031 403.011719 322.6875 C 403.011719 327.414062 407.738281 334.5 416.007812 334.5 C 419.890625 334.5 420.730469 333.320312 420.730469 328.59375 C 420.730469 299.0625 427.820312 277.800781 427.820312 277.800781 C 438.449219 277.800781 466.800781 268.265625 466.800781 235.273438 C 466.800781 222.566406 460.894531 218.738281 454.988281 218.738281 Z M 448.382812 255.886719 C 446.191406 257.898438 439.632812 262.445312 433.726562 263.625 C 436.085938 255.355469 443.175781 243.542969 450.261719 235.273438 C 454.609375 230.199219 456.226562 230.550781 457.351562 230.550781 C 459.277344 230.550781 459.75 232.914062 459.75 234.09375 C 459.75 244.726562 451.8125 252.738281 448.382812 255.886719 Z M 448.382812 255.886719 "/>
<path style=" stroke:none;fill-rule:nonzero;fill:rgb(100%,100%,100%);fill-opacity:1;" d="M 53.363281 145.5 C 26.195312 145.5 13.199219 151.207031 13.199219 158.492188 C 13.199219 161.992188 15.5625 167.945312 25.011719 167.945312 C 25.011719 167.945312 29.738281 167.945312 29.738281 164.398438 C 29.738281 162.039062 27.121094 162.039062 25.011719 162.039062 C 22.648438 162.039062 22.648438 160.855469 22.648438 160.855469 C 22.648438 158.492188 27.375 156.132812 53.363281 156.132812 C 111.242188 156.132812 177.394531 207.078125 177.394531 241.179688 C 177.394531 271.894531 141.730469 274.257812 127.78125 274.257812 C 113.605469 274.257812 101.792969 271.894531 101.792969 271.894531 C 101.792969 271.894531 101.792969 242.058594 101.792969 230.550781 C 130.144531 230.550781 143.996094 234.566406 143.996094 240.234375 C 143.996094 245.90625 136.050781 243.542969 136.050781 245.90625 C 136.050781 248.269531 141.039062 249.714844 144.320312 249.449219 C 147.597656 249.183594 154.949219 248.0625 154.949219 238.820312 C 154.949219 229.367188 147.863281 215.195312 101.792969 215.195312 C 101.792969 215.195312 101.792969 201.019531 101.792969 198.65625 C 101.792969 196.292969 100.613281 183.300781 93.523438 183.300781 C 86.4375 183.300781 85.257812 195.460938 85.257812 198.65625 C 85.257812 206.925781 85.152344 215.195312 85.152344 215.195312 C 68.71875 216.375 41.550781 222.28125 41.550781 240 C 41.550781 256.539062 66.355469 269.53125 85.257812 278.980469 C 85.257812 284.886719 85.257812 284.886719 85.257812 288.429688 C 85.257812 291.976562 87.617188 296.699219 93.523438 296.699219 C 100.613281 296.699219 101.792969 290.792969 101.792969 283.707031 C 101.792969 283.707031 113.605469 287.25 128.960938 287.25 C 182.117188 287.25 197.476562 260.082031 197.476562 240 C 197.476562 195.113281 132.507812 145.5 53.363281 145.5 Z M 85.257812 265.988281 C 85.257812 265.988281 48.636719 250.632812 48.636719 240 C 48.636719 230.550781 76.988281 230.550781 85.257812 230.550781 Z M 85.257812 265.988281 "/>
</g>
</svg>
